<svg id="visual" viewBox="0 0 960 300" width="960" height="300" xmlns="http://www.w3.org/2000/svg" xmlns:xlink="http://www.w3.org/1999/xlink" version="1.1"><rect x="0" y="0" width="960" height="100" fill="#001220"></rect><path d="M0 171L13.3 169.3C26.7 167.7 53.3 164.3 80 160.5C106.7 156.7 133.3 152.3 160 150.5C186.7 148.7 213.3 149.3 240 153.8C266.7 158.3 293.3 166.7 320 167.8C346.7 169 373.3 163 400 161C426.7 159 453.3 161 480 162.8C506.7 164.7 533.3 166.3 560 164.5C586.7 162.7 613.3 157.3 640 155.7C666.7 154 693.3 156 720 159.5C746.7 163 773.3 168 800 167.3C826.7 166.7 853.3 160.3 880 157.3C906.7 154.3 933.3 154.7 946.7 154.8L960 155L960 0L946.7 0C933.3 0 906.7 0 880 0C853.3 0 826.7 0 800 0C773.3 0 746.7 0 720 0C693.3 0 666.7 0 640 0C613.3 0 586.7 0 560 0C533.3 0 506.7 0 480 0C453.3 0 426.7 0 400 0C373.3 0 346.7 0 320 0C293.3 0 266.7 0 240 0C213.3 0 186.7 0 160 0C133.3 0 106.7 0 80 0C53.3 0 26.7 0 13.3 0L0 0Z" fill="#fa7268"></path><path d="M0 145L13.3 146.2C26.7 147.3 53.3 149.7 80 148.2C106.7 146.7 133.3 141.3 160 140.7C186.7 140 213.3 144 240 142.8C266.7 141.7 293.3 135.3 320 133.5C346.7 131.7 373.3 134.3 400 135.3C426.7 136.3 453.3 135.7 480 138.2C506.7 140.7 533.3 146.3 560 148.2C586.7 150 613.3 148 640 145.2C666.7 142.3 693.3 138.7 720 139.7C746.7 140.7 773.3 146.3 800 145.5C826.7 144.7 853.3 137.3 880 135.8C906.7 134.3 933.3 138.7 946.7 140.8L960 143L960 0L946.7 0C933.3 0 906.7 0 880 0C853.3 0 826.7 0 800 0C773.3 0 746.7 0 720 0C693.3 0 666.7 0 640 0C613.3 0 586.7 0 560 0C533.3 0 506.7 0 480 0C453.3 0 426.7 0 400 0C373.3 0 346.7 0 320 0C293.3 0 266.7 0 240 0C213.3 0 186.7 0 160 0C133.3 0 106.7 0 80 0C53.3 0 26.7 0 13.3 0L0 0Z" fill="#f46767"></path><path d="M0 130L13.3 130C26.7 130 53.3 130 80 128.7C106.7 127.3 133.3 124.7 160 122.8C186.7 121 213.3 120 240 119.8C266.7 119.7 293.3 120.3 320 122.2C346.7 124 373.3 127 400 126.3C426.7 125.7 453.3 121.3 480 121.2C506.7 121 533.3 125 560 126.7C586.7 128.3 613.3 127.7 640 124.5C666.7 121.3 693.3 115.7 720 113.2C746.7 110.7 773.3 111.3 800 113.8C826.7 116.3 853.3 120.7 880 120.3C906.7 120 933.3 115 946.7 112.5L960 110L960 0L946.7 0C933.3 0 906.7 0 880 0C853.3 0 826.7 0 800 0C773.3 0 746.7 0 720 0C693.3 0 666.7 0 640 0C613.3 0 586.7 0 560 0C533.3 0 506.7 0 480 0C453.3 0 426.7 0 400 0C373.3 0 346.7 0 320 0C293.3 0 266.7 0 240 0C213.3 0 186.7 0 160 0C133.3 0 106.7 0 80 0C53.3 0 26.7 0 13.3 0L0 0Z" fill="#ee5c67"></path><path d="M0 101L13.3 102.8C26.7 104.7 53.3 108.3 80 107.3C106.7 106.3 133.3 100.7 160 98.8C186.7 97 213.3 99 240 98.3C266.7 97.7 293.3 94.3 320 92.8C346.7 91.3 373.3 91.7 400 91.8C426.7 92 453.3 92 480 92.3C506.7 92.7 533.3 93.3 560 95.2C586.7 97 613.3 100 640 102.3C666.7 104.7 693.3 106.3 720 105.5C746.7 104.7 773.3 101.3 800 101.7C826.7 102 853.3 106 880 107.7C906.7 109.3 933.3 108.7 946.7 108.3L960 108L960 0L946.7 0C933.3 0 906.7 0 880 0C853.3 0 826.7 0 800 0C773.3 0 746.7 0 720 0C693.3 0 666.7 0 640 0C613.3 0 586.7 0 560 0C533.3 0 506.7 0 480 0C453.3 0 426.7 0 400 0C373.3 0 346.7 0 320 0C293.3 0 266.7 0 240 0C213.3 0 186.7 0 160 0C133.3 0 106.7 0 80 0C53.3 0 26.7 0 13.3 0L0 0Z" fill="#e75167"></path><path d="M0 87L13.3 85C26.7 83 53.3 79 80 77.7C106.7 76.3 133.3 77.7 160 78C186.7 78.3 213.3 77.7 240 79.5C266.7 81.3 293.3 85.7 320 86.3C346.7 87 373.3 84 400 84.2C426.7 84.3 453.3 87.7 480 88.3C506.7 89 533.3 87 560 86.5C586.7 86 613.3 87 640 87C666.7 87 693.3 86 720 84.2C746.7 82.3 773.3 79.7 800 80.3C826.7 81 853.3 85 880 87.2C906.7 89.3 933.3 89.7 946.7 89.8L960 90L960 0L946.7 0C933.3 0 906.7 0 880 0C853.3 0 826.7 0 800 0C773.3 0 746.7 0 720 0C693.3 0 666.7 0 640 0C613.3 0 586.7 0 560 0C533.3 0 506.7 0 480 0C453.3 0 426.7 0 400 0C373.3 0 346.7 0 320 0C293.3 0 266.7 0 240 0C213.3 0 186.7 0 160 0C133.3 0 106.7 0 80 0C53.3 0 26.7 0 13.3 0L0 0Z" fill="#df4667"></path><path d="M0 65L13.3 65C26.7 65 53.3 65 80 65.3C106.7 65.7 133.3 66.3 160 66.8C186.7 67.3 213.3 67.7 240 67.3C266.7 67 293.3 66 320 63.7C346.7 61.3 373.3 57.7 400 58.5C426.7 59.3 453.3 64.7 480 66.7C506.7 68.7 533.3 67.3 560 67C586.7 66.7 613.3 67.3 640 65.3C666.7 63.3 693.3 58.7 720 57.3C746.7 56 773.3 58 800 60.8C826.7 63.7 853.3 67.3 880 66.2C906.7 65 933.3 59 946.7 56L960 53L960 0L946.7 0C933.3 0 906.7 0 880 0C853.3 0 826.7 0 800 0C773.3 0 746.7 0 720 0C693.3 0 666.7 0 640 0C613.3 0 586.7 0 560 0C533.3 0 506.7 0 480 0C453.3 0 426.7 0 400 0C373.3 0 346.7 0 320 0C293.3 0 266.7 0 240 0C213.3 0 186.7 0 160 0C133.3 0 106.7 0 80 0C53.3 0 26.7 0 13.3 0L0 0Z" fill="#d73b67"></path><path d="M0 50L13.3 47.7C26.7 45.3 53.3 40.7 80 39.5C106.7 38.3 133.3 40.7 160 40.7C186.7 40.7 213.3 38.3 240 39.2C266.7 40 293.3 44 320 44.5C346.7 45 373.3 42 400 42C426.7 42 453.3 45 480 45.8C506.7 46.7 533.3 45.3 560 45.3C586.7 45.3 613.3 46.7 640 47.3C666.7 48 693.3 48 720 46.8C746.7 45.7 773.3 43.3 800 43.2C826.7 43 853.3 45 880 44.3C906.7 43.7 933.3 40.3 946.7 38.7L960 37L960 0L946.7 0C933.3 0 906.7 0 880 0C853.3 0 826.7 0 800 0C773.3 0 746.7 0 720 0C693.3 0 666.7 0 640 0C613.3 0 586.7 0 560 0C533.3 0 506.7 0 480 0C453.3 0 426.7 0 400 0C373.3 0 346.7 0 320 0C293.3 0 266.7 0 240 0C213.3 0 186.7 0 160 0C133.3 0 106.7 0 80 0C53.3 0 26.7 0 13.3 0L0 0Z" fill="#cf3068"></path><path d="M0 22L13.3 22.5C26.7 23 53.3 24 80 24C106.7 24 133.3 23 160 22.8C186.7 22.7 213.3 23.3 240 24.5C266.7 25.7 293.3 27.3 320 28C346.7 28.7 373.3 28.3 400 26.5C426.7 24.7 453.3 21.3 480 20.5C506.7 19.7 533.3 21.3 560 21.7C586.7 22 613.3 21 640 21.2C666.7 21.3 693.3 22.7 720 23.2C746.7 23.7 773.3 23.3 800 22.2C826.7 21 853.3 19 880 19.8C906.7 20.7 933.3 24.3 946.7 26.2L960 28L960 0L946.7 0C933.3 0 906.7 0 880 0C853.3 0 826.7 0 800 0C773.3 0 746.7 0 720 0C693.3 0 666.7 0 640 0C613.3 0 586.7 0 560 0C533.3 0 506.7 0 480 0C453.3 0 426.7 0 400 0C373.3 0 346.7 0 320 0C293.3 0 266.7 0 240 0C213.3 0 186.7 0 160 0C133.3 0 106.7 0 80 0C53.3 0 26.7 0 13.3 0L0 0Z" fill="#c62368"></path></svg>