<svg id="visual" viewBox="0 0 960 300" width="960" height="300" xmlns="http://www.w3.org/2000/svg" xmlns:xlink="http://www.w3.org/1999/xlink" version="1.1"><rect x="0" y="0" width="960" height="100" fill="#001220"></rect><path d="M0 173L13.3 173C26.7 173 53.3 173 80 169.3C106.7 165.7 133.3 158.3 160 158.7C186.7 159 213.3 167 240 169.8C266.7 172.7 293.3 170.3 320 166.8C346.7 163.3 373.3 158.7 400 159.3C426.7 160 453.3 166 480 168.2C506.7 170.3 533.3 168.7 560 164.5C586.7 160.3 613.3 153.7 640 150.8C666.7 148 693.3 149 720 152C746.7 155 773.3 160 800 160.5C826.7 161 853.3 157 880 154.3C906.7 151.7 933.3 150.3 946.7 149.7L960 149L960 0L946.7 0C933.3 0 906.7 0 880 0C853.3 0 826.7 0 800 0C773.3 0 746.7 0 720 0C693.3 0 666.7 0 640 0C613.3 0 586.7 0 560 0C533.3 0 506.7 0 480 0C453.3 0 426.7 0 400 0C373.3 0 346.7 0 320 0C293.3 0 266.7 0 240 0C213.3 0 186.7 0 160 0C133.3 0 106.7 0 80 0C53.3 0 26.7 0 13.3 0L0 0Z" fill="#fa7268"></path><path d="M0 141L13.3 142.7C26.7 144.3 53.3 147.7 80 146.3C106.7 145 133.3 139 160 137.8C186.7 136.7 213.3 140.3 240 141.2C266.7 142 293.3 140 320 139.8C346.7 139.7 373.3 141.3 400 140.7C426.7 140 453.3 137 480 134.8C506.7 132.7 533.3 131.3 560 134.5C586.7 137.7 613.3 145.3 640 146C666.7 146.7 693.3 140.3 720 138.5C746.7 136.7 773.3 139.3 800 139.2C826.7 139 853.3 136 880 137.5C906.7 139 933.3 145 946.7 148L960 151L960 0L946.7 0C933.3 0 906.7 0 880 0C853.3 0 826.7 0 800 0C773.3 0 746.7 0 720 0C693.3 0 666.7 0 640 0C613.3 0 586.7 0 560 0C533.3 0 506.7 0 480 0C453.3 0 426.7 0 400 0C373.3 0 346.7 0 320 0C293.3 0 266.7 0 240 0C213.3 0 186.7 0 160 0C133.3 0 106.7 0 80 0C53.3 0 26.7 0 13.3 0L0 0Z" fill="#f46767"></path><path d="M0 118L13.3 119.3C26.7 120.7 53.3 123.3 80 125C106.7 126.7 133.3 127.3 160 126.2C186.7 125 213.3 122 240 120.7C266.7 119.3 293.3 119.7 320 119.3C346.7 119 373.3 118 400 116.3C426.7 114.7 453.3 112.3 480 112C506.7 111.7 533.3 113.3 560 115.5C586.7 117.7 613.3 120.3 640 121.5C666.7 122.7 693.3 122.3 720 120.5C746.7 118.7 773.3 115.3 800 115.3C826.7 115.3 853.3 118.7 880 119.7C906.7 120.7 933.3 119.3 946.7 118.7L960 118L960 0L946.7 0C933.3 0 906.7 0 880 0C853.3 0 826.7 0 800 0C773.3 0 746.7 0 720 0C693.3 0 666.7 0 640 0C613.3 0 586.7 0 560 0C533.3 0 506.7 0 480 0C453.3 0 426.7 0 400 0C373.3 0 346.7 0 320 0C293.3 0 266.7 0 240 0C213.3 0 186.7 0 160 0C133.3 0 106.7 0 80 0C53.3 0 26.7 0 13.3 0L0 0Z" fill="#ee5c67"></path><path d="M0 100L13.3 99.8C26.7 99.7 53.3 99.3 80 100.3C106.7 101.3 133.3 103.7 160 105C186.7 106.3 213.3 106.7 240 107.2C266.7 107.7 293.3 108.3 320 107.5C346.7 106.7 373.3 104.3 400 101.3C426.7 98.3 453.3 94.7 480 96C506.7 97.3 533.3 103.7 560 103.8C586.7 104 613.3 98 640 97.7C666.7 97.3 693.3 102.7 720 104.8C746.7 107 773.3 106 800 105.5C826.7 105 853.3 105 880 104C906.7 103 933.3 101 946.7 100L960 99L960 0L946.7 0C933.3 0 906.7 0 880 0C853.3 0 826.7 0 800 0C773.3 0 746.7 0 720 0C693.3 0 666.7 0 640 0C613.3 0 586.7 0 560 0C533.3 0 506.7 0 480 0C453.3 0 426.7 0 400 0C373.3 0 346.7 0 320 0C293.3 0 266.7 0 240 0C213.3 0 186.7 0 160 0C133.3 0 106.7 0 80 0C53.3 0 26.7 0 13.3 0L0 0Z" fill="#e75167"></path><path d="M0 78L13.3 77.7C26.7 77.3 53.3 76.7 80 76.2C106.7 75.7 133.3 75.3 160 75.8C186.7 76.3 213.3 77.7 240 79.8C266.7 82 293.3 85 320 86.2C346.7 87.3 373.3 86.7 400 87.2C426.7 87.7 453.3 89.3 480 88.7C506.7 88 533.3 85 560 84.5C586.7 84 613.3 86 640 85.2C666.7 84.3 693.3 80.7 720 81C746.7 81.3 773.3 85.7 800 86.5C826.7 87.3 853.3 84.7 880 83C906.7 81.3 933.3 80.7 946.7 80.3L960 80L960 0L946.7 0C933.3 0 906.7 0 880 0C853.3 0 826.7 0 800 0C773.3 0 746.7 0 720 0C693.3 0 666.7 0 640 0C613.3 0 586.7 0 560 0C533.3 0 506.7 0 480 0C453.3 0 426.7 0 400 0C373.3 0 346.7 0 320 0C293.3 0 266.7 0 240 0C213.3 0 186.7 0 160 0C133.3 0 106.7 0 80 0C53.3 0 26.7 0 13.3 0L0 0Z" fill="#df4667"></path><path d="M0 70L13.3 70.2C26.7 70.3 53.3 70.7 80 70.5C106.7 70.3 133.3 69.7 160 68.5C186.7 67.3 213.3 65.7 240 65C266.7 64.3 293.3 64.7 320 65.2C346.7 65.7 373.3 66.3 400 64.7C426.7 63 453.3 59 480 59.2C506.7 59.3 533.3 63.7 560 66.2C586.7 68.7 613.3 69.3 640 69.3C666.7 69.3 693.3 68.7 720 67.2C746.7 65.7 773.3 63.3 800 63.3C826.7 63.3 853.3 65.7 880 66.3C906.7 67 933.3 66 946.7 65.5L960 65L960 0L946.7 0C933.3 0 906.7 0 880 0C853.3 0 826.7 0 800 0C773.3 0 746.7 0 720 0C693.3 0 666.7 0 640 0C613.3 0 586.7 0 560 0C533.3 0 506.7 0 480 0C453.3 0 426.7 0 400 0C373.3 0 346.7 0 320 0C293.3 0 266.7 0 240 0C213.3 0 186.7 0 160 0C133.3 0 106.7 0 80 0C53.3 0 26.7 0 13.3 0L0 0Z" fill="#d73b67"></path><path d="M0 46L13.3 44.8C26.7 43.7 53.3 41.3 80 41C106.7 40.7 133.3 42.3 160 43.5C186.7 44.7 213.3 45.3 240 44.2C266.7 43 293.3 40 320 39.7C346.7 39.3 373.3 41.7 400 42.8C426.7 44 453.3 44 480 44.7C506.7 45.3 533.3 46.7 560 46.2C586.7 45.7 613.3 43.3 640 42C666.7 40.7 693.3 40.3 720 41C746.7 41.7 773.3 43.3 800 43.5C826.7 43.7 853.3 42.3 880 41.2C906.7 40 933.3 39 946.7 38.5L960 38L960 0L946.7 0C933.3 0 906.7 0 880 0C853.3 0 826.7 0 800 0C773.3 0 746.7 0 720 0C693.3 0 666.7 0 640 0C613.3 0 586.7 0 560 0C533.3 0 506.7 0 480 0C453.3 0 426.7 0 400 0C373.3 0 346.7 0 320 0C293.3 0 266.7 0 240 0C213.3 0 186.7 0 160 0C133.3 0 106.7 0 80 0C53.3 0 26.7 0 13.3 0L0 0Z" fill="#cf3068"></path><path d="M0 26L13.3 25.8C26.7 25.7 53.3 25.3 80 25.5C106.7 25.7 133.3 26.3 160 26C186.7 25.7 213.3 24.3 240 23.5C266.7 22.7 293.3 22.3 320 21C346.7 19.7 373.3 17.3 400 18.2C426.7 19 453.3 23 480 25.3C506.7 27.7 533.3 28.3 560 28.5C586.7 28.7 613.3 28.3 640 27C666.7 25.7 693.3 23.3 720 22.7C746.7 22 773.3 23 800 23.3C826.7 23.7 853.3 23.3 880 23.2C906.7 23 933.3 23 946.7 23L960 23L960 0L946.7 0C933.3 0 906.7 0 880 0C853.3 0 826.7 0 800 0C773.3 0 746.7 0 720 0C693.3 0 666.7 0 640 0C613.3 0 586.7 0 560 0C533.3 0 506.7 0 480 0C453.3 0 426.7 0 400 0C373.3 0 346.7 0 320 0C293.3 0 266.7 0 240 0C213.3 0 186.7 0 160 0C133.3 0 106.7 0 80 0C53.3 0 26.7 0 13.3 0L0 0Z" fill="#c62368"></path></svg>