<svg id="visual" viewBox="0 0 960 300" width="960" height="300" xmlns="http://www.w3.org/2000/svg" xmlns:xlink="http://www.w3.org/1999/xlink" version="1.1"><rect x="0" y="0" width="960" height="100" fill="#001220"></rect><path d="M0 164L13.3 162.5C26.7 161 53.3 158 80 158.8C106.7 159.7 133.3 164.3 160 163.3C186.7 162.3 213.3 155.7 240 155.5C266.7 155.3 293.3 161.7 320 164.7C346.7 167.7 373.3 167.3 400 163.8C426.7 160.3 453.3 153.7 480 152C506.7 150.3 533.3 153.7 560 155C586.7 156.3 613.3 155.7 640 154.7C666.7 153.7 693.3 152.3 720 151.5C746.7 150.7 773.3 150.3 800 151.3C826.7 152.3 853.3 154.7 880 155.2C906.7 155.7 933.3 154.3 946.7 153.7L960 153L960 0L946.7 0C933.3 0 906.7 0 880 0C853.3 0 826.7 0 800 0C773.3 0 746.7 0 720 0C693.3 0 666.7 0 640 0C613.3 0 586.7 0 560 0C533.3 0 506.7 0 480 0C453.3 0 426.7 0 400 0C373.3 0 346.7 0 320 0C293.3 0 266.7 0 240 0C213.3 0 186.7 0 160 0C133.3 0 106.7 0 80 0C53.3 0 26.7 0 13.3 0L0 0Z" fill="#fa7268"></path><path d="M0 149L13.3 148.7C26.7 148.3 53.3 147.7 80 148C106.7 148.3 133.3 149.7 160 149.5C186.7 149.3 213.3 147.7 240 147.2C266.7 146.7 293.3 147.3 320 148.5C346.7 149.7 373.3 151.3 400 149.8C426.7 148.3 453.3 143.7 480 141.8C506.7 140 533.3 141 560 142C586.7 143 613.3 144 640 142.5C666.7 141 693.3 137 720 138.2C746.7 139.3 773.3 145.7 800 145.3C826.7 145 853.3 138 880 137.3C906.7 136.7 933.3 142.3 946.7 145.2L960 148L960 0L946.7 0C933.3 0 906.7 0 880 0C853.3 0 826.7 0 800 0C773.3 0 746.7 0 720 0C693.3 0 666.7 0 640 0C613.3 0 586.7 0 560 0C533.3 0 506.7 0 480 0C453.3 0 426.7 0 400 0C373.3 0 346.7 0 320 0C293.3 0 266.7 0 240 0C213.3 0 186.7 0 160 0C133.3 0 106.7 0 80 0C53.3 0 26.7 0 13.3 0L0 0Z" fill="#f46767"></path><path d="M0 122L13.3 121.8C26.7 121.7 53.3 121.3 80 122.7C106.7 124 133.3 127 160 129C186.7 131 213.3 132 240 132.2C266.7 132.3 293.3 131.7 320 128.2C346.7 124.7 373.3 118.3 400 118.2C426.7 118 453.3 124 480 126C506.7 128 533.3 126 560 125C586.7 124 613.3 124 640 124.8C666.7 125.7 693.3 127.3 720 125C746.7 122.7 773.3 116.3 800 114.5C826.7 112.7 853.3 115.3 880 118.8C906.7 122.3 933.3 126.7 946.7 128.8L960 131L960 0L946.7 0C933.3 0 906.7 0 880 0C853.3 0 826.7 0 800 0C773.3 0 746.7 0 720 0C693.3 0 666.7 0 640 0C613.3 0 586.7 0 560 0C533.3 0 506.7 0 480 0C453.3 0 426.7 0 400 0C373.3 0 346.7 0 320 0C293.3 0 266.7 0 240 0C213.3 0 186.7 0 160 0C133.3 0 106.7 0 80 0C53.3 0 26.7 0 13.3 0L0 0Z" fill="#ee5c67"></path><path d="M0 109L13.3 106.8C26.7 104.7 53.3 100.3 80 100.5C106.7 100.7 133.3 105.3 160 107.5C186.7 109.7 213.3 109.3 240 109.7C266.7 110 293.3 111 320 109.8C346.7 108.7 373.3 105.3 400 105C426.7 104.7 453.3 107.3 480 105.5C506.7 103.7 533.3 97.3 560 96.8C586.7 96.3 613.3 101.7 640 104.8C666.7 108 693.3 109 720 107C746.7 105 773.3 100 800 96.8C826.7 93.7 853.3 92.3 880 92C906.7 91.7 933.3 92.3 946.7 92.7L960 93L960 0L946.7 0C933.3 0 906.7 0 880 0C853.3 0 826.7 0 800 0C773.3 0 746.7 0 720 0C693.3 0 666.7 0 640 0C613.3 0 586.7 0 560 0C533.3 0 506.7 0 480 0C453.3 0 426.7 0 400 0C373.3 0 346.7 0 320 0C293.3 0 266.7 0 240 0C213.3 0 186.7 0 160 0C133.3 0 106.7 0 80 0C53.3 0 26.7 0 13.3 0L0 0Z" fill="#e75167"></path><path d="M0 80L13.3 81.7C26.7 83.3 53.3 86.7 80 87.7C106.7 88.7 133.3 87.3 160 86C186.7 84.7 213.3 83.3 240 81.3C266.7 79.3 293.3 76.7 320 77.5C346.7 78.3 373.3 82.7 400 83C426.7 83.3 453.3 79.7 480 79.2C506.7 78.7 533.3 81.3 560 82.2C586.7 83 613.3 82 640 80.2C666.7 78.3 693.3 75.7 720 77.3C746.7 79 773.3 85 800 84.8C826.7 84.7 853.3 78.3 880 77.7C906.7 77 933.3 82 946.7 84.5L960 87L960 0L946.7 0C933.3 0 906.7 0 880 0C853.3 0 826.7 0 800 0C773.3 0 746.7 0 720 0C693.3 0 666.7 0 640 0C613.3 0 586.7 0 560 0C533.3 0 506.7 0 480 0C453.3 0 426.7 0 400 0C373.3 0 346.7 0 320 0C293.3 0 266.7 0 240 0C213.3 0 186.7 0 160 0C133.3 0 106.7 0 80 0C53.3 0 26.7 0 13.3 0L0 0Z" fill="#df4667"></path><path d="M0 64L13.3 63.5C26.7 63 53.3 62 80 61C106.7 60 133.3 59 160 60C186.7 61 213.3 64 240 63.5C266.7 63 293.3 59 320 57.5C346.7 56 373.3 57 400 59C426.7 61 453.3 64 480 65.3C506.7 66.7 533.3 66.3 560 66.2C586.7 66 613.3 66 640 66.5C666.7 67 693.3 68 720 67.5C746.7 67 773.3 65 800 65.2C826.7 65.3 853.3 67.7 880 66.3C906.7 65 933.3 60 946.7 57.5L960 55L960 0L946.7 0C933.3 0 906.7 0 880 0C853.3 0 826.7 0 800 0C773.3 0 746.7 0 720 0C693.3 0 666.7 0 640 0C613.3 0 586.7 0 560 0C533.3 0 506.7 0 480 0C453.3 0 426.7 0 400 0C373.3 0 346.7 0 320 0C293.3 0 266.7 0 240 0C213.3 0 186.7 0 160 0C133.3 0 106.7 0 80 0C53.3 0 26.7 0 13.3 0L0 0Z" fill="#d73b67"></path><path d="M0 45L13.3 45.8C26.7 46.7 53.3 48.3 80 46.8C106.7 45.3 133.3 40.7 160 40.3C186.7 40 213.3 44 240 44.8C266.7 45.7 293.3 43.3 320 41.2C346.7 39 373.3 37 400 36.2C426.7 35.3 453.3 35.7 480 35.7C506.7 35.7 533.3 35.3 560 37.5C586.7 39.7 613.3 44.3 640 46.3C666.7 48.3 693.3 47.7 720 46C746.7 44.3 773.3 41.7 800 41C826.7 40.3 853.3 41.7 880 42.8C906.7 44 933.3 45 946.7 45.5L960 46L960 0L946.7 0C933.3 0 906.7 0 880 0C853.3 0 826.7 0 800 0C773.3 0 746.7 0 720 0C693.3 0 666.7 0 640 0C613.3 0 586.7 0 560 0C533.3 0 506.7 0 480 0C453.3 0 426.7 0 400 0C373.3 0 346.7 0 320 0C293.3 0 266.7 0 240 0C213.3 0 186.7 0 160 0C133.3 0 106.7 0 80 0C53.3 0 26.7 0 13.3 0L0 0Z" fill="#cf3068"></path><path d="M0 29L13.3 26.8C26.7 24.7 53.3 20.3 80 18.5C106.7 16.7 133.3 17.3 160 18.3C186.7 19.3 213.3 20.7 240 21.7C266.7 22.7 293.3 23.3 320 23.3C346.7 23.3 373.3 22.7 400 22.2C426.7 21.7 453.3 21.3 480 20.8C506.7 20.3 533.3 19.7 560 18.8C586.7 18 613.3 17 640 18.2C666.7 19.3 693.3 22.7 720 22.8C746.7 23 773.3 20 800 18.3C826.7 16.7 853.3 16.3 880 16.5C906.7 16.7 933.3 17.3 946.7 17.7L960 18L960 0L946.7 0C933.3 0 906.7 0 880 0C853.3 0 826.7 0 800 0C773.3 0 746.7 0 720 0C693.3 0 666.7 0 640 0C613.3 0 586.7 0 560 0C533.3 0 506.7 0 480 0C453.3 0 426.7 0 400 0C373.3 0 346.7 0 320 0C293.3 0 266.7 0 240 0C213.3 0 186.7 0 160 0C133.3 0 106.7 0 80 0C53.3 0 26.7 0 13.3 0L0 0Z" fill="#c62368"></path></svg>