<svg id="visual" viewBox="0 0 960 300" width="960" height="300" xmlns="http://www.w3.org/2000/svg" xmlns:xlink="http://www.w3.org/1999/xlink" version="1.1"><rect x="0" y="0" width="960" height="100" fill="#001220"></rect><path d="M0 170L13.3 166.5C26.7 163 53.3 156 80 155.3C106.7 154.7 133.3 160.3 160 161.5C186.7 162.7 213.3 159.3 240 156.5C266.7 153.7 293.3 151.3 320 153.5C346.7 155.7 373.3 162.3 400 163.5C426.7 164.7 453.3 160.3 480 159.2C506.7 158 533.3 160 560 162.5C586.7 165 613.3 168 640 169.2C666.7 170.3 693.3 169.7 720 169.7C746.7 169.7 773.3 170.3 800 171.3C826.7 172.3 853.3 173.7 880 170.2C906.7 166.7 933.3 158.3 946.7 154.2L960 150L960 0L946.7 0C933.3 0 906.7 0 880 0C853.3 0 826.7 0 800 0C773.3 0 746.7 0 720 0C693.3 0 666.7 0 640 0C613.3 0 586.7 0 560 0C533.3 0 506.7 0 480 0C453.3 0 426.7 0 400 0C373.3 0 346.7 0 320 0C293.3 0 266.7 0 240 0C213.3 0 186.7 0 160 0C133.3 0 106.7 0 80 0C53.3 0 26.7 0 13.3 0L0 0Z" fill="#fa7268"></path><path d="M0 141L13.3 140.2C26.7 139.3 53.3 137.7 80 138C106.7 138.3 133.3 140.7 160 141C186.7 141.3 213.3 139.7 240 139.8C266.7 140 293.3 142 320 141.5C346.7 141 373.3 138 400 136C426.7 134 453.3 133 480 132.7C506.7 132.3 533.3 132.7 560 136C586.7 139.3 613.3 145.7 640 145.3C666.7 145 693.3 138 720 135.7C746.7 133.3 773.3 135.7 800 139.3C826.7 143 853.3 148 880 147.2C906.7 146.3 933.3 139.7 946.7 136.3L960 133L960 0L946.7 0C933.3 0 906.7 0 880 0C853.3 0 826.7 0 800 0C773.3 0 746.7 0 720 0C693.3 0 666.7 0 640 0C613.3 0 586.7 0 560 0C533.3 0 506.7 0 480 0C453.3 0 426.7 0 400 0C373.3 0 346.7 0 320 0C293.3 0 266.7 0 240 0C213.3 0 186.7 0 160 0C133.3 0 106.7 0 80 0C53.3 0 26.7 0 13.3 0L0 0Z" fill="#f46767"></path><path d="M0 132L13.3 130.8C26.7 129.7 53.3 127.3 80 125.3C106.7 123.3 133.3 121.7 160 121.5C186.7 121.3 213.3 122.7 240 124C266.7 125.3 293.3 126.7 320 124.8C346.7 123 373.3 118 400 118C426.7 118 453.3 123 480 125.8C506.7 128.7 533.3 129.3 560 127.7C586.7 126 613.3 122 640 120.7C666.7 119.3 693.3 120.7 720 120.2C746.7 119.7 773.3 117.3 800 117.3C826.7 117.3 853.3 119.7 880 118.8C906.7 118 933.3 114 946.7 112L960 110L960 0L946.7 0C933.3 0 906.7 0 880 0C853.3 0 826.7 0 800 0C773.3 0 746.7 0 720 0C693.3 0 666.7 0 640 0C613.3 0 586.7 0 560 0C533.3 0 506.7 0 480 0C453.3 0 426.7 0 400 0C373.3 0 346.7 0 320 0C293.3 0 266.7 0 240 0C213.3 0 186.7 0 160 0C133.3 0 106.7 0 80 0C53.3 0 26.7 0 13.3 0L0 0Z" fill="#ee5c67"></path><path d="M0 91L13.3 94.3C26.7 97.7 53.3 104.3 80 104.3C106.7 104.3 133.3 97.7 160 95.3C186.7 93 213.3 95 240 95.5C266.7 96 293.3 95 320 96.7C346.7 98.3 373.3 102.7 400 103.8C426.7 105 453.3 103 480 103.8C506.7 104.7 533.3 108.3 560 109.8C586.7 111.3 613.3 110.7 640 109.8C666.7 109 693.3 108 720 105.8C746.7 103.7 773.3 100.3 800 100.8C826.7 101.3 853.3 105.7 880 105.7C906.7 105.7 933.3 101.3 946.7 99.2L960 97L960 0L946.7 0C933.3 0 906.7 0 880 0C853.3 0 826.7 0 800 0C773.3 0 746.7 0 720 0C693.3 0 666.7 0 640 0C613.3 0 586.7 0 560 0C533.3 0 506.7 0 480 0C453.3 0 426.7 0 400 0C373.3 0 346.7 0 320 0C293.3 0 266.7 0 240 0C213.3 0 186.7 0 160 0C133.3 0 106.7 0 80 0C53.3 0 26.7 0 13.3 0L0 0Z" fill="#e75167"></path><path d="M0 80L13.3 79.7C26.7 79.3 53.3 78.7 80 79.3C106.7 80 133.3 82 160 81.8C186.7 81.7 213.3 79.3 240 79.5C266.7 79.7 293.3 82.3 320 81.8C346.7 81.3 373.3 77.7 400 76.3C426.7 75 453.3 76 480 76.2C506.7 76.3 533.3 75.7 560 76.2C586.7 76.7 613.3 78.3 640 80.7C666.7 83 693.3 86 720 86.3C746.7 86.7 773.3 84.3 800 84.5C826.7 84.7 853.3 87.3 880 87.8C906.7 88.3 933.3 86.7 946.7 85.8L960 85L960 0L946.7 0C933.3 0 906.7 0 880 0C853.3 0 826.7 0 800 0C773.3 0 746.7 0 720 0C693.3 0 666.7 0 640 0C613.3 0 586.7 0 560 0C533.3 0 506.7 0 480 0C453.3 0 426.7 0 400 0C373.3 0 346.7 0 320 0C293.3 0 266.7 0 240 0C213.3 0 186.7 0 160 0C133.3 0 106.7 0 80 0C53.3 0 26.7 0 13.3 0L0 0Z" fill="#df4667"></path><path d="M0 63L13.3 63.5C26.7 64 53.3 65 80 65.7C106.7 66.3 133.3 66.7 160 65C186.7 63.3 213.3 59.7 240 58.7C266.7 57.7 293.3 59.3 320 59.7C346.7 60 373.3 59 400 60.2C426.7 61.3 453.3 64.7 480 64.2C506.7 63.7 533.3 59.3 560 59.3C586.7 59.3 613.3 63.7 640 64.2C666.7 64.7 693.3 61.3 720 61.2C746.7 61 773.3 64 800 65C826.7 66 853.3 65 880 63.2C906.7 61.3 933.3 58.7 946.7 57.3L960 56L960 0L946.7 0C933.3 0 906.7 0 880 0C853.3 0 826.7 0 800 0C773.3 0 746.7 0 720 0C693.3 0 666.7 0 640 0C613.3 0 586.7 0 560 0C533.3 0 506.7 0 480 0C453.3 0 426.7 0 400 0C373.3 0 346.7 0 320 0C293.3 0 266.7 0 240 0C213.3 0 186.7 0 160 0C133.3 0 106.7 0 80 0C53.3 0 26.7 0 13.3 0L0 0Z" fill="#d73b67"></path><path d="M0 45L13.3 44.2C26.7 43.3 53.3 41.7 80 41.8C106.7 42 133.3 44 160 45.2C186.7 46.3 213.3 46.7 240 45.5C266.7 44.3 293.3 41.7 320 41.8C346.7 42 373.3 45 400 46.7C426.7 48.3 453.3 48.7 480 47.2C506.7 45.7 533.3 42.3 560 41.5C586.7 40.7 613.3 42.3 640 42.8C666.7 43.3 693.3 42.7 720 42.2C746.7 41.7 773.3 41.3 800 42C826.7 42.7 853.3 44.3 880 45.5C906.7 46.7 933.3 47.3 946.7 47.7L960 48L960 0L946.7 0C933.3 0 906.7 0 880 0C853.3 0 826.7 0 800 0C773.3 0 746.7 0 720 0C693.3 0 666.7 0 640 0C613.3 0 586.7 0 560 0C533.3 0 506.7 0 480 0C453.3 0 426.7 0 400 0C373.3 0 346.7 0 320 0C293.3 0 266.7 0 240 0C213.3 0 186.7 0 160 0C133.3 0 106.7 0 80 0C53.3 0 26.7 0 13.3 0L0 0Z" fill="#cf3068"></path><path d="M0 22L13.3 22.3C26.7 22.7 53.3 23.3 80 23.2C106.7 23 133.3 22 160 21.7C186.7 21.3 213.3 21.7 240 21.2C266.7 20.7 293.3 19.3 320 19C346.7 18.7 373.3 19.3 400 19.7C426.7 20 453.3 20 480 19.8C506.7 19.7 533.3 19.3 560 18.7C586.7 18 613.3 17 640 16.7C666.7 16.3 693.3 16.7 720 17.8C746.7 19 773.3 21 800 21C826.7 21 853.3 19 880 17.7C906.7 16.3 933.3 15.7 946.7 15.3L960 15L960 0L946.7 0C933.3 0 906.7 0 880 0C853.3 0 826.7 0 800 0C773.3 0 746.7 0 720 0C693.3 0 666.7 0 640 0C613.3 0 586.7 0 560 0C533.3 0 506.7 0 480 0C453.3 0 426.7 0 400 0C373.3 0 346.7 0 320 0C293.3 0 266.7 0 240 0C213.3 0 186.7 0 160 0C133.3 0 106.7 0 80 0C53.3 0 26.7 0 13.3 0L0 0Z" fill="#c62368"></path></svg>