<svg id="visual" viewBox="0 0 960 300" width="960" height="300" xmlns="http://www.w3.org/2000/svg" xmlns:xlink="http://www.w3.org/1999/xlink" version="1.1"><rect x="0" y="0" width="960" height="100" fill="#001220"></rect><path d="M0 174L13.3 171.2C26.7 168.3 53.3 162.7 80 160.2C106.7 157.7 133.3 158.3 160 157.7C186.7 157 213.3 155 240 155.8C266.7 156.7 293.3 160.3 320 159.5C346.7 158.7 373.3 153.3 400 150.8C426.7 148.3 453.3 148.7 480 152.3C506.7 156 533.3 163 560 167.3C586.7 171.7 613.3 173.3 640 173C666.7 172.7 693.3 170.3 720 167.5C746.7 164.7 773.3 161.3 800 161.7C826.7 162 853.3 166 880 167.7C906.7 169.3 933.3 168.7 946.7 168.3L960 168L960 0L946.7 0C933.3 0 906.7 0 880 0C853.3 0 826.7 0 800 0C773.3 0 746.7 0 720 0C693.3 0 666.7 0 640 0C613.3 0 586.7 0 560 0C533.3 0 506.7 0 480 0C453.3 0 426.7 0 400 0C373.3 0 346.7 0 320 0C293.3 0 266.7 0 240 0C213.3 0 186.7 0 160 0C133.3 0 106.7 0 80 0C53.3 0 26.7 0 13.3 0L0 0Z" fill="#fa7268"></path><path d="M0 131L13.3 134.7C26.7 138.3 53.3 145.7 80 145.7C106.7 145.7 133.3 138.3 160 135.7C186.7 133 213.3 135 240 137.3C266.7 139.7 293.3 142.3 320 143.8C346.7 145.3 373.3 145.7 400 146.8C426.7 148 453.3 150 480 149.3C506.7 148.7 533.3 145.3 560 143.7C586.7 142 613.3 142 640 142.7C666.7 143.3 693.3 144.7 720 144.2C746.7 143.7 773.3 141.3 800 141.3C826.7 141.3 853.3 143.7 880 142.2C906.7 140.7 933.3 135.3 946.7 132.7L960 130L960 0L946.7 0C933.3 0 906.7 0 880 0C853.3 0 826.7 0 800 0C773.3 0 746.7 0 720 0C693.3 0 666.7 0 640 0C613.3 0 586.7 0 560 0C533.3 0 506.7 0 480 0C453.3 0 426.7 0 400 0C373.3 0 346.7 0 320 0C293.3 0 266.7 0 240 0C213.3 0 186.7 0 160 0C133.3 0 106.7 0 80 0C53.3 0 26.7 0 13.3 0L0 0Z" fill="#f46767"></path><path d="M0 134L13.3 130.5C26.7 127 53.3 120 80 116.3C106.7 112.7 133.3 112.3 160 111.8C186.7 111.3 213.3 110.7 240 111.7C266.7 112.7 293.3 115.3 320 116.7C346.7 118 373.3 118 400 119.5C426.7 121 453.3 124 480 122.7C506.7 121.3 533.3 115.7 560 116C586.7 116.3 613.3 122.7 640 124.3C666.7 126 693.3 123 720 123.5C746.7 124 773.3 128 800 126.3C826.7 124.7 853.3 117.3 880 116.3C906.7 115.3 933.3 120.7 946.7 123.3L960 126L960 0L946.7 0C933.3 0 906.7 0 880 0C853.3 0 826.7 0 800 0C773.3 0 746.7 0 720 0C693.3 0 666.7 0 640 0C613.3 0 586.7 0 560 0C533.3 0 506.7 0 480 0C453.3 0 426.7 0 400 0C373.3 0 346.7 0 320 0C293.3 0 266.7 0 240 0C213.3 0 186.7 0 160 0C133.3 0 106.7 0 80 0C53.3 0 26.7 0 13.3 0L0 0Z" fill="#ee5c67"></path><path d="M0 91L13.3 91.2C26.7 91.3 53.3 91.7 80 91.7C106.7 91.7 133.3 91.3 160 91.5C186.7 91.7 213.3 92.3 240 94.2C266.7 96 293.3 99 320 98.7C346.7 98.3 373.3 94.7 400 95.7C426.7 96.7 453.3 102.3 480 105C506.7 107.7 533.3 107.3 560 106.2C586.7 105 613.3 103 640 102.2C666.7 101.3 693.3 101.7 720 100.3C746.7 99 773.3 96 800 95.8C826.7 95.7 853.3 98.3 880 99.5C906.7 100.7 933.3 100.3 946.7 100.2L960 100L960 0L946.7 0C933.3 0 906.7 0 880 0C853.3 0 826.7 0 800 0C773.3 0 746.7 0 720 0C693.3 0 666.7 0 640 0C613.3 0 586.7 0 560 0C533.3 0 506.7 0 480 0C453.3 0 426.7 0 400 0C373.3 0 346.7 0 320 0C293.3 0 266.7 0 240 0C213.3 0 186.7 0 160 0C133.3 0 106.7 0 80 0C53.3 0 26.7 0 13.3 0L0 0Z" fill="#e75167"></path><path d="M0 76L13.3 77.2C26.7 78.3 53.3 80.7 80 82.8C106.7 85 133.3 87 160 87.8C186.7 88.7 213.3 88.3 240 86.5C266.7 84.7 293.3 81.3 320 80.2C346.7 79 373.3 80 400 80C426.7 80 453.3 79 480 78C506.7 77 533.3 76 560 77.2C586.7 78.3 613.3 81.7 640 83.7C666.7 85.7 693.3 86.3 720 85.8C746.7 85.3 773.3 83.7 800 81.8C826.7 80 853.3 78 880 78.7C906.7 79.3 933.3 82.7 946.7 84.3L960 86L960 0L946.7 0C933.3 0 906.7 0 880 0C853.3 0 826.7 0 800 0C773.3 0 746.7 0 720 0C693.3 0 666.7 0 640 0C613.3 0 586.7 0 560 0C533.3 0 506.7 0 480 0C453.3 0 426.7 0 400 0C373.3 0 346.7 0 320 0C293.3 0 266.7 0 240 0C213.3 0 186.7 0 160 0C133.3 0 106.7 0 80 0C53.3 0 26.7 0 13.3 0L0 0Z" fill="#df4667"></path><path d="M0 63L13.3 62.2C26.7 61.3 53.3 59.7 80 60C106.7 60.3 133.3 62.7 160 62.5C186.7 62.3 213.3 59.7 240 58.5C266.7 57.3 293.3 57.7 320 58.7C346.7 59.7 373.3 61.3 400 63C426.7 64.7 453.3 66.3 480 66.2C506.7 66 533.3 64 560 64.5C586.7 65 613.3 68 640 68.3C666.7 68.7 693.3 66.3 720 63.3C746.7 60.3 773.3 56.7 800 57.3C826.7 58 853.3 63 880 65.2C906.7 67.3 933.3 66.7 946.7 66.3L960 66L960 0L946.7 0C933.3 0 906.7 0 880 0C853.3 0 826.7 0 800 0C773.3 0 746.7 0 720 0C693.3 0 666.7 0 640 0C613.3 0 586.7 0 560 0C533.3 0 506.7 0 480 0C453.3 0 426.7 0 400 0C373.3 0 346.7 0 320 0C293.3 0 266.7 0 240 0C213.3 0 186.7 0 160 0C133.3 0 106.7 0 80 0C53.3 0 26.7 0 13.3 0L0 0Z" fill="#d73b67"></path><path d="M0 49L13.3 47.2C26.7 45.3 53.3 41.7 80 39.8C106.7 38 133.3 38 160 38.8C186.7 39.7 213.3 41.3 240 43C266.7 44.7 293.3 46.3 320 45C346.7 43.7 373.3 39.3 400 39.2C426.7 39 453.3 43 480 44C506.7 45 533.3 43 560 41.7C586.7 40.3 613.3 39.7 640 38.7C666.7 37.7 693.3 36.3 720 37.7C746.7 39 773.3 43 800 43.3C826.7 43.7 853.3 40.3 880 40.8C906.7 41.3 933.3 45.7 946.7 47.8L960 50L960 0L946.7 0C933.3 0 906.7 0 880 0C853.3 0 826.7 0 800 0C773.3 0 746.7 0 720 0C693.3 0 666.7 0 640 0C613.3 0 586.7 0 560 0C533.3 0 506.7 0 480 0C453.3 0 426.7 0 400 0C373.3 0 346.7 0 320 0C293.3 0 266.7 0 240 0C213.3 0 186.7 0 160 0C133.3 0 106.7 0 80 0C53.3 0 26.7 0 13.3 0L0 0Z" fill="#cf3068"></path><path d="M0 18L13.3 17.7C26.7 17.3 53.3 16.7 80 17.7C106.7 18.7 133.3 21.3 160 21.7C186.7 22 213.3 20 240 19C266.7 18 293.3 18 320 18.5C346.7 19 373.3 20 400 20.7C426.7 21.3 453.3 21.7 480 21.7C506.7 21.7 533.3 21.3 560 20.3C586.7 19.3 613.3 17.7 640 17C666.7 16.3 693.3 16.7 720 17.8C746.7 19 773.3 21 800 23C826.7 25 853.3 27 880 26C906.7 25 933.3 21 946.7 19L960 17L960 0L946.7 0C933.3 0 906.7 0 880 0C853.3 0 826.7 0 800 0C773.3 0 746.7 0 720 0C693.3 0 666.7 0 640 0C613.3 0 586.7 0 560 0C533.3 0 506.7 0 480 0C453.3 0 426.7 0 400 0C373.3 0 346.7 0 320 0C293.3 0 266.7 0 240 0C213.3 0 186.7 0 160 0C133.3 0 106.7 0 80 0C53.3 0 26.7 0 13.3 0L0 0Z" fill="#c62368"></path></svg>