<svg id="visual" viewBox="0 0 960 300" width="960" height="300" xmlns="http://www.w3.org/2000/svg" xmlns:xlink="http://www.w3.org/1999/xlink" version="1.1">
<rect x="0" y="0" width="960" height="100" fill="#001220"></rect>
<path d="M0 160L13.3 161.2C26.7 162.3 53.3 164.7 80 165.2C106.7 165.7 133.3 164.3 160 164C186.7 163.7 213.3 164.3 240 162.7C266.7 161 293.3 157 320 154.2C346.7 151.3 373.3 149.7 400 148.8C426.7 148 453.3 148 480 149.3C506.7 150.7 533.3 153.3 560 156.8C586.7 160.3 613.3 164.7 640 165C666.7 165.3 693.3 161.7 720 161.5C746.7 161.3 773.3 164.7 800 165.7C826.7 166.7 853.3 165.3 880 163.8C906.7 162.3 933.3 160.7 946.7 159.8L960 159L960 0L946.7 0C933.3 0 906.7 0 880 0C853.3 0 826.7 0 800 0C773.3 0 746.7 0 720 0C693.3 0 666.7 0 640 0C613.3 0 586.7 0 560 0C533.3 0 506.7 0 480 0C453.3 0 426.7 0 400 0C373.3 0 346.7 0 320 0C293.3 0 266.7 0 240 0C213.3 0 186.7 0 160 0C133.3 0 106.7 0 80 0C53.3 0 26.7 0 13.3 0L0 0Z" fill="#fa7268"></path><path d="M0 138L13.3 138.2C26.7 138.3 53.3 138.7 80 138.5C106.7 138.3 133.3 137.7 160 139.5C186.7 141.3 213.3 145.7 240 147.8C266.7 150 293.3 150 320 149.8C346.7 149.7 373.3 149.3 400 148.2C426.7 147 453.3 145 480 144.8C506.7 144.7 533.3 146.3 560 144.7C586.7 143 613.3 138 640 137.2C666.7 136.3 693.3 139.7 720 139C746.7 138.3 773.3 133.7 800 134.3C826.7 135 853.3 141 880 141.8C906.7 142.7 933.3 138.3 946.7 136.2L960 134L960 0L946.7 0C933.3 0 906.7 0 880 0C853.3 0 826.7 0 800 0C773.3 0 746.7 0 720 0C693.3 0 666.7 0 640 0C613.3 0 586.7 0 560 0C533.3 0 506.7 0 480 0C453.3 0 426.7 0 400 0C373.3 0 346.7 0 320 0C293.3 0 266.7 0 240 0C213.3 0 186.7 0 160 0C133.3 0 106.7 0 80 0C53.3 0 26.7 0 13.3 0L0 0Z" fill="#f46767"></path><path d="M0 120L13.3 119.2C26.7 118.3 53.3 116.7 80 116.8C106.7 117 133.3 119 160 118.7C186.7 118.3 213.3 115.7 240 115.7C266.7 115.7 293.3 118.3 320 121.7C346.7 125 373.3 129 400 130C426.7 131 453.3 129 480 125.2C506.7 121.3 533.3 115.7 560 114.8C586.7 114 613.3 118 640 121.5C666.7 125 693.3 128 720 127.3C746.7 126.7 773.3 122.3 800 122.2C826.7 122 853.3 126 880 128.5C906.7 131 933.3 132 946.7 132.5L960 133L960 0L946.7 0C933.3 0 906.7 0 880 0C853.3 0 826.7 0 800 0C773.3 0 746.7 0 720 0C693.3 0 666.7 0 640 0C613.3 0 586.7 0 560 0C533.3 0 506.7 0 480 0C453.3 0 426.7 0 400 0C373.3 0 346.7 0 320 0C293.3 0 266.7 0 240 0C213.3 0 186.7 0 160 0C133.3 0 106.7 0 80 0C53.3 0 26.7 0 13.3 0L0 0Z" fill="#ee5c67"></path><path d="M0 96L13.3 97.7C26.7 99.3 53.3 102.7 80 102.7C106.7 102.7 133.3 99.3 160 97C186.7 94.7 213.3 93.3 240 95.7C266.7 98 293.3 104 320 106.3C346.7 108.7 373.3 107.3 400 105.5C426.7 103.7 453.3 101.3 480 99.5C506.7 97.7 533.3 96.3 560 96.3C586.7 96.3 613.3 97.7 640 100C666.7 102.3 693.3 105.7 720 106.2C746.7 106.7 773.3 104.3 800 101.3C826.7 98.3 853.3 94.7 880 94.8C906.7 95 933.3 99 946.7 101L960 103L960 0L946.7 0C933.3 0 906.7 0 880 0C853.3 0 826.7 0 800 0C773.3 0 746.7 0 720 0C693.3 0 666.7 0 640 0C613.3 0 586.7 0 560 0C533.3 0 506.7 0 480 0C453.3 0 426.7 0 400 0C373.3 0 346.7 0 320 0C293.3 0 266.7 0 240 0C213.3 0 186.7 0 160 0C133.3 0 106.7 0 80 0C53.3 0 26.7 0 13.3 0L0 0Z" fill="#e75167"></path><path d="M0 88L13.3 87C26.7 86 53.3 84 80 81.7C106.7 79.3 133.3 76.7 160 76.2C186.7 75.7 213.3 77.3 240 79.3C266.7 81.3 293.3 83.7 320 84C346.7 84.3 373.3 82.7 400 80.7C426.7 78.7 453.3 76.3 480 75.7C506.7 75 533.3 76 560 77.7C586.7 79.3 613.3 81.7 640 81.3C666.7 81 693.3 78 720 78.3C746.7 78.7 773.3 82.3 800 84.8C826.7 87.3 853.3 88.7 880 86.5C906.7 84.3 933.3 78.7 946.7 75.8L960 73L960 0L946.7 0C933.3 0 906.7 0 880 0C853.3 0 826.7 0 800 0C773.3 0 746.7 0 720 0C693.3 0 666.7 0 640 0C613.3 0 586.7 0 560 0C533.3 0 506.7 0 480 0C453.3 0 426.7 0 400 0C373.3 0 346.7 0 320 0C293.3 0 266.7 0 240 0C213.3 0 186.7 0 160 0C133.3 0 106.7 0 80 0C53.3 0 26.7 0 13.3 0L0 0Z" fill="#df4667"></path><path d="M0 70L13.3 68.3C26.7 66.7 53.3 63.3 80 62.3C106.7 61.3 133.3 62.7 160 62.5C186.7 62.3 213.3 60.7 240 60.3C266.7 60 293.3 61 320 61.5C346.7 62 373.3 62 400 60.8C426.7 59.7 453.3 57.3 480 58.7C506.7 60 533.3 65 560 67.5C586.7 70 613.3 70 640 69.7C666.7 69.3 693.3 68.7 720 68.7C746.7 68.7 773.3 69.3 800 69.2C826.7 69 853.3 68 880 66.7C906.7 65.3 933.3 63.7 946.7 62.8L960 62L960 0L946.7 0C933.3 0 906.7 0 880 0C853.3 0 826.7 0 800 0C773.3 0 746.7 0 720 0C693.3 0 666.7 0 640 0C613.3 0 586.7 0 560 0C533.3 0 506.7 0 480 0C453.3 0 426.7 0 400 0C373.3 0 346.7 0 320 0C293.3 0 266.7 0 240 0C213.3 0 186.7 0 160 0C133.3 0 106.7 0 80 0C53.3 0 26.7 0 13.3 0L0 0Z" fill="#d73b67"></path><path d="M0 40L13.3 41.2C26.7 42.3 53.3 44.7 80 46C106.7 47.3 133.3 47.7 160 46.8C186.7 46 213.3 44 240 44.3C266.7 44.7 293.3 47.3 320 46.5C346.7 45.7 373.3 41.3 400 39C426.7 36.7 453.3 36.3 480 36.3C506.7 36.3 533.3 36.7 560 37C586.7 37.3 613.3 37.7 640 38.5C666.7 39.3 693.3 40.7 720 42.2C746.7 43.7 773.3 45.3 800 45C826.7 44.7 853.3 42.3 880 42.3C906.7 42.3 933.3 44.7 946.7 45.8L960 47L960 0L946.7 0C933.3 0 906.7 0 880 0C853.3 0 826.7 0 800 0C773.3 0 746.7 0 720 0C693.3 0 666.7 0 640 0C613.3 0 586.7 0 560 0C533.3 0 506.7 0 480 0C453.3 0 426.7 0 400 0C373.3 0 346.7 0 320 0C293.3 0 266.7 0 240 0C213.3 0 186.7 0 160 0C133.3 0 106.7 0 80 0C53.3 0 26.7 0 13.3 0L0 0Z" fill="#cf3068"></path><path d="M0 27L13.3 26.5C26.7 26 53.3 25 80 24C106.7 23 133.3 22 160 22.2C186.7 22.3 213.3 23.7 240 24.5C266.7 25.3 293.3 25.7 320 24.2C346.7 22.7 373.3 19.3 400 18.5C426.7 17.7 453.3 19.3 480 20.8C506.7 22.3 533.3 23.7 560 23C586.7 22.3 613.3 19.7 640 20.3C666.7 21 693.3 25 720 25.5C746.7 26 773.3 23 800 21.8C826.7 20.7 853.3 21.3 880 20.7C906.7 20 933.3 18 946.7 17L960 16L960 0L946.7 0C933.3 0 906.7 0 880 0C853.3 0 826.7 0 800 0C773.3 0 746.7 0 720 0C693.3 0 666.7 0 640 0C613.3 0 586.7 0 560 0C533.3 0 506.7 0 480 0C453.3 0 426.7 0 400 0C373.3 0 346.7 0 320 0C293.3 0 266.7 0 240 0C213.3 0 186.7 0 160 0C133.3 0 106.7 0 80 0C53.3 0 26.7 0 13.3 0L0 0Z" fill="#c62368"></path>
</svg>