<svg id="visual" viewBox="0 0 960 300" width="960" height="300" xmlns="http://www.w3.org/2000/svg" xmlns:xlink="http://www.w3.org/1999/xlink" version="1.1"><rect x="0" y="0" width="960" height="100" fill="#001220"></rect><path d="M0 148L13.3 151.2C26.7 154.3 53.3 160.7 80 160.8C106.7 161 133.3 155 160 152.5C186.7 150 213.3 151 240 155.2C266.7 159.3 293.3 166.7 320 167.5C346.7 168.3 373.3 162.7 400 160.7C426.7 158.7 453.3 160.3 480 161C506.7 161.7 533.3 161.3 560 163.2C586.7 165 613.3 169 640 169.8C666.7 170.7 693.3 168.3 720 164.5C746.7 160.7 773.3 155.3 800 153.3C826.7 151.3 853.3 152.7 880 154.5C906.7 156.3 933.3 158.7 946.7 159.8L960 161L960 0L946.7 0C933.3 0 906.7 0 880 0C853.3 0 826.7 0 800 0C773.3 0 746.7 0 720 0C693.3 0 666.7 0 640 0C613.3 0 586.7 0 560 0C533.3 0 506.7 0 480 0C453.3 0 426.7 0 400 0C373.3 0 346.7 0 320 0C293.3 0 266.7 0 240 0C213.3 0 186.7 0 160 0C133.3 0 106.7 0 80 0C53.3 0 26.7 0 13.3 0L0 0Z" fill="#fa7268"></path><path d="M0 138L13.3 136.7C26.7 135.3 53.3 132.7 80 132.3C106.7 132 133.3 134 160 134.5C186.7 135 213.3 134 240 133C266.7 132 293.3 131 320 131.7C346.7 132.3 373.3 134.7 400 136.8C426.7 139 453.3 141 480 141.8C506.7 142.7 533.3 142.3 560 141.5C586.7 140.7 613.3 139.3 640 140.8C666.7 142.3 693.3 146.7 720 146.2C746.7 145.7 773.3 140.3 800 137.3C826.7 134.3 853.3 133.7 880 136C906.7 138.3 933.3 143.7 946.7 146.3L960 149L960 0L946.7 0C933.3 0 906.7 0 880 0C853.3 0 826.7 0 800 0C773.3 0 746.7 0 720 0C693.3 0 666.7 0 640 0C613.3 0 586.7 0 560 0C533.3 0 506.7 0 480 0C453.3 0 426.7 0 400 0C373.3 0 346.7 0 320 0C293.3 0 266.7 0 240 0C213.3 0 186.7 0 160 0C133.3 0 106.7 0 80 0C53.3 0 26.7 0 13.3 0L0 0Z" fill="#f46767"></path><path d="M0 131L13.3 129.5C26.7 128 53.3 125 80 121.5C106.7 118 133.3 114 160 113.3C186.7 112.7 213.3 115.3 240 116C266.7 116.7 293.3 115.3 320 115.5C346.7 115.7 373.3 117.3 400 120C426.7 122.7 453.3 126.3 480 127.8C506.7 129.3 533.3 128.7 560 126.3C586.7 124 613.3 120 640 118C666.7 116 693.3 116 720 115.5C746.7 115 773.3 114 800 113.7C826.7 113.3 853.3 113.7 880 114.8C906.7 116 933.3 118 946.7 119L960 120L960 0L946.7 0C933.3 0 906.7 0 880 0C853.3 0 826.7 0 800 0C773.3 0 746.7 0 720 0C693.3 0 666.7 0 640 0C613.3 0 586.7 0 560 0C533.3 0 506.7 0 480 0C453.3 0 426.7 0 400 0C373.3 0 346.7 0 320 0C293.3 0 266.7 0 240 0C213.3 0 186.7 0 160 0C133.3 0 106.7 0 80 0C53.3 0 26.7 0 13.3 0L0 0Z" fill="#ee5c67"></path><path d="M0 101L13.3 102.3C26.7 103.7 53.3 106.3 80 107.3C106.7 108.3 133.3 107.7 160 105.7C186.7 103.7 213.3 100.3 240 101.2C266.7 102 293.3 107 320 108.3C346.7 109.7 373.3 107.3 400 107.2C426.7 107 453.3 109 480 109.3C506.7 109.7 533.3 108.3 560 105.2C586.7 102 613.3 97 640 95.2C666.7 93.3 693.3 94.7 720 96.2C746.7 97.7 773.3 99.3 800 100C826.7 100.7 853.3 100.3 880 100.7C906.7 101 933.3 102 946.7 102.5L960 103L960 0L946.7 0C933.3 0 906.7 0 880 0C853.3 0 826.7 0 800 0C773.3 0 746.7 0 720 0C693.3 0 666.7 0 640 0C613.3 0 586.7 0 560 0C533.3 0 506.7 0 480 0C453.3 0 426.7 0 400 0C373.3 0 346.7 0 320 0C293.3 0 266.7 0 240 0C213.3 0 186.7 0 160 0C133.3 0 106.7 0 80 0C53.3 0 26.7 0 13.3 0L0 0Z" fill="#e75167"></path><path d="M0 87L13.3 87.5C26.7 88 53.3 89 80 89.2C106.7 89.3 133.3 88.7 160 88.3C186.7 88 213.3 88 240 87C266.7 86 293.3 84 320 82C346.7 80 373.3 78 400 76.7C426.7 75.3 453.3 74.7 480 75.7C506.7 76.7 533.3 79.3 560 81.7C586.7 84 613.3 86 640 86.2C666.7 86.3 693.3 84.7 720 85C746.7 85.3 773.3 87.7 800 87C826.7 86.3 853.3 82.7 880 80C906.7 77.3 933.3 75.7 946.7 74.8L960 74L960 0L946.7 0C933.3 0 906.7 0 880 0C853.3 0 826.7 0 800 0C773.3 0 746.7 0 720 0C693.3 0 666.7 0 640 0C613.3 0 586.7 0 560 0C533.3 0 506.7 0 480 0C453.3 0 426.7 0 400 0C373.3 0 346.7 0 320 0C293.3 0 266.7 0 240 0C213.3 0 186.7 0 160 0C133.3 0 106.7 0 80 0C53.3 0 26.7 0 13.3 0L0 0Z" fill="#df4667"></path><path d="M0 61L13.3 60.8C26.7 60.7 53.3 60.3 80 61.5C106.7 62.7 133.3 65.3 160 64.2C186.7 63 213.3 58 240 57.7C266.7 57.3 293.3 61.7 320 62.7C346.7 63.7 373.3 61.3 400 61.3C426.7 61.3 453.3 63.7 480 63C506.7 62.3 533.3 58.7 560 57.5C586.7 56.3 613.3 57.7 640 57.7C666.7 57.7 693.3 56.3 720 57.2C746.7 58 773.3 61 800 60.7C826.7 60.3 853.3 56.7 880 57.5C906.7 58.3 933.3 63.7 946.7 66.3L960 69L960 0L946.7 0C933.3 0 906.7 0 880 0C853.3 0 826.7 0 800 0C773.3 0 746.7 0 720 0C693.3 0 666.7 0 640 0C613.3 0 586.7 0 560 0C533.3 0 506.7 0 480 0C453.3 0 426.7 0 400 0C373.3 0 346.7 0 320 0C293.3 0 266.7 0 240 0C213.3 0 186.7 0 160 0C133.3 0 106.7 0 80 0C53.3 0 26.7 0 13.3 0L0 0Z" fill="#d73b67"></path><path d="M0 37L13.3 39.2C26.7 41.3 53.3 45.7 80 46.2C106.7 46.7 133.3 43.3 160 42.3C186.7 41.3 213.3 42.7 240 42.8C266.7 43 293.3 42 320 40.7C346.7 39.3 373.3 37.7 400 38.7C426.7 39.7 453.3 43.3 480 45.3C506.7 47.3 533.3 47.7 560 47.3C586.7 47 613.3 46 640 45.8C666.7 45.7 693.3 46.3 720 47C746.7 47.7 773.3 48.3 800 48.5C826.7 48.7 853.3 48.3 880 46.7C906.7 45 933.3 42 946.7 40.5L960 39L960 0L946.7 0C933.3 0 906.7 0 880 0C853.3 0 826.7 0 800 0C773.3 0 746.7 0 720 0C693.3 0 666.7 0 640 0C613.3 0 586.7 0 560 0C533.3 0 506.7 0 480 0C453.3 0 426.7 0 400 0C373.3 0 346.7 0 320 0C293.3 0 266.7 0 240 0C213.3 0 186.7 0 160 0C133.3 0 106.7 0 80 0C53.3 0 26.7 0 13.3 0L0 0Z" fill="#cf3068"></path><path d="M0 20L13.3 20.7C26.7 21.3 53.3 22.7 80 23.3C106.7 24 133.3 24 160 23.2C186.7 22.3 213.3 20.7 240 19.3C266.7 18 293.3 17 320 17.2C346.7 17.3 373.3 18.7 400 19.3C426.7 20 453.3 20 480 20.2C506.7 20.3 533.3 20.7 560 21.5C586.7 22.3 613.3 23.7 640 25C666.7 26.3 693.3 27.7 720 26.2C746.7 24.7 773.3 20.3 800 20.3C826.7 20.3 853.3 24.7 880 26C906.7 27.3 933.3 25.7 946.7 24.8L960 24L960 0L946.7 0C933.3 0 906.7 0 880 0C853.3 0 826.7 0 800 0C773.3 0 746.7 0 720 0C693.3 0 666.7 0 640 0C613.3 0 586.7 0 560 0C533.3 0 506.7 0 480 0C453.3 0 426.7 0 400 0C373.3 0 346.7 0 320 0C293.3 0 266.7 0 240 0C213.3 0 186.7 0 160 0C133.3 0 106.7 0 80 0C53.3 0 26.7 0 13.3 0L0 0Z" fill="#c62368"></path></svg>