<svg id="visual" viewBox="0 0 960 300" width="960" height="300" xmlns="http://www.w3.org/2000/svg" xmlns:xlink="http://www.w3.org/1999/xlink" version="1.1"><rect x="0" y="0" width="960" height="100" fill="#001220"></rect><path d="M0 174L13.3 171C26.7 168 53.3 162 80 162C106.7 162 133.3 168 160 166.7C186.7 165.3 213.3 156.7 240 153.2C266.7 149.7 293.3 151.3 320 153.2C346.7 155 373.3 157 400 159.7C426.7 162.3 453.3 165.7 480 167.8C506.7 170 533.3 171 560 170.8C586.7 170.7 613.3 169.3 640 169.3C666.7 169.3 693.3 170.7 720 170.7C746.7 170.7 773.3 169.3 800 167.3C826.7 165.3 853.3 162.7 880 163.7C906.7 164.7 933.3 169.3 946.7 171.7L960 174L960 0L946.7 0C933.3 0 906.7 0 880 0C853.3 0 826.7 0 800 0C773.3 0 746.7 0 720 0C693.3 0 666.7 0 640 0C613.3 0 586.7 0 560 0C533.3 0 506.7 0 480 0C453.3 0 426.7 0 400 0C373.3 0 346.7 0 320 0C293.3 0 266.7 0 240 0C213.3 0 186.7 0 160 0C133.3 0 106.7 0 80 0C53.3 0 26.7 0 13.3 0L0 0Z" fill="#fa7268"></path><path d="M0 154L13.3 151.5C26.7 149 53.3 144 80 141.7C106.7 139.3 133.3 139.7 160 140.8C186.7 142 213.3 144 240 142.5C266.7 141 293.3 136 320 137C346.7 138 373.3 145 400 145.5C426.7 146 453.3 140 480 136.5C506.7 133 533.3 132 560 134.7C586.7 137.3 613.3 143.7 640 144.8C666.7 146 693.3 142 720 141.8C746.7 141.7 773.3 145.3 800 146.5C826.7 147.7 853.3 146.3 880 143.3C906.7 140.3 933.3 135.7 946.7 133.3L960 131L960 0L946.7 0C933.3 0 906.7 0 880 0C853.3 0 826.7 0 800 0C773.3 0 746.7 0 720 0C693.3 0 666.7 0 640 0C613.3 0 586.7 0 560 0C533.3 0 506.7 0 480 0C453.3 0 426.7 0 400 0C373.3 0 346.7 0 320 0C293.3 0 266.7 0 240 0C213.3 0 186.7 0 160 0C133.3 0 106.7 0 80 0C53.3 0 26.7 0 13.3 0L0 0Z" fill="#f46767"></path><path d="M0 126L13.3 124.5C26.7 123 53.3 120 80 121C106.7 122 133.3 127 160 128.8C186.7 130.7 213.3 129.3 240 128.3C266.7 127.3 293.3 126.7 320 125C346.7 123.3 373.3 120.7 400 118.3C426.7 116 453.3 114 480 116.5C506.7 119 533.3 126 560 126C586.7 126 613.3 119 640 118.2C666.7 117.3 693.3 122.7 720 122.5C746.7 122.3 773.3 116.7 800 117.2C826.7 117.7 853.3 124.3 880 127.3C906.7 130.3 933.3 129.7 946.7 129.3L960 129L960 0L946.7 0C933.3 0 906.7 0 880 0C853.3 0 826.7 0 800 0C773.3 0 746.7 0 720 0C693.3 0 666.7 0 640 0C613.3 0 586.7 0 560 0C533.3 0 506.7 0 480 0C453.3 0 426.7 0 400 0C373.3 0 346.7 0 320 0C293.3 0 266.7 0 240 0C213.3 0 186.7 0 160 0C133.3 0 106.7 0 80 0C53.3 0 26.7 0 13.3 0L0 0Z" fill="#ee5c67"></path><path d="M0 96L13.3 96.8C26.7 97.7 53.3 99.3 80 102.2C106.7 105 133.3 109 160 110.2C186.7 111.3 213.3 109.7 240 107.3C266.7 105 293.3 102 320 101.7C346.7 101.3 373.3 103.7 400 103.3C426.7 103 453.3 100 480 99.7C506.7 99.3 533.3 101.7 560 102.7C586.7 103.7 613.3 103.3 640 104.5C666.7 105.7 693.3 108.3 720 109.7C746.7 111 773.3 111 800 111C826.7 111 853.3 111 880 108.5C906.7 106 933.3 101 946.7 98.5L960 96L960 0L946.7 0C933.3 0 906.7 0 880 0C853.3 0 826.7 0 800 0C773.3 0 746.7 0 720 0C693.3 0 666.7 0 640 0C613.3 0 586.7 0 560 0C533.3 0 506.7 0 480 0C453.3 0 426.7 0 400 0C373.3 0 346.7 0 320 0C293.3 0 266.7 0 240 0C213.3 0 186.7 0 160 0C133.3 0 106.7 0 80 0C53.3 0 26.7 0 13.3 0L0 0Z" fill="#e75167"></path><path d="M0 85L13.3 85.3C26.7 85.7 53.3 86.3 80 85.2C106.7 84 133.3 81 160 79.7C186.7 78.3 213.3 78.7 240 77.7C266.7 76.7 293.3 74.3 320 74.7C346.7 75 373.3 78 400 80.7C426.7 83.3 453.3 85.7 480 86.5C506.7 87.3 533.3 86.7 560 86C586.7 85.3 613.3 84.7 640 82.7C666.7 80.7 693.3 77.3 720 77.5C746.7 77.7 773.3 81.3 800 82.7C826.7 84 853.3 83 880 83.3C906.7 83.7 933.3 85.3 946.7 86.2L960 87L960 0L946.7 0C933.3 0 906.7 0 880 0C853.3 0 826.7 0 800 0C773.3 0 746.7 0 720 0C693.3 0 666.7 0 640 0C613.3 0 586.7 0 560 0C533.3 0 506.7 0 480 0C453.3 0 426.7 0 400 0C373.3 0 346.7 0 320 0C293.3 0 266.7 0 240 0C213.3 0 186.7 0 160 0C133.3 0 106.7 0 80 0C53.3 0 26.7 0 13.3 0L0 0Z" fill="#df4667"></path><path d="M0 63L13.3 64C26.7 65 53.3 67 80 67.7C106.7 68.3 133.3 67.7 160 66.8C186.7 66 213.3 65 240 64C266.7 63 293.3 62 320 63C346.7 64 373.3 67 400 68.5C426.7 70 453.3 70 480 68.2C506.7 66.3 533.3 62.7 560 61.2C586.7 59.7 613.3 60.3 640 61.2C666.7 62 693.3 63 720 63.7C746.7 64.3 773.3 64.7 800 65.7C826.7 66.7 853.3 68.3 880 66.3C906.7 64.3 933.3 58.7 946.7 55.8L960 53L960 0L946.7 0C933.3 0 906.7 0 880 0C853.3 0 826.7 0 800 0C773.3 0 746.7 0 720 0C693.3 0 666.7 0 640 0C613.3 0 586.7 0 560 0C533.3 0 506.7 0 480 0C453.3 0 426.7 0 400 0C373.3 0 346.7 0 320 0C293.3 0 266.7 0 240 0C213.3 0 186.7 0 160 0C133.3 0 106.7 0 80 0C53.3 0 26.7 0 13.3 0L0 0Z" fill="#d73b67"></path><path d="M0 41L13.3 42C26.7 43 53.3 45 80 45.7C106.7 46.3 133.3 45.7 160 43.8C186.7 42 213.3 39 240 39.7C266.7 40.3 293.3 44.7 320 45.2C346.7 45.7 373.3 42.3 400 41.2C426.7 40 453.3 41 480 40.7C506.7 40.3 533.3 38.7 560 37.8C586.7 37 613.3 37 640 37.2C666.7 37.3 693.3 37.7 720 38.5C746.7 39.3 773.3 40.7 800 41.2C826.7 41.7 853.3 41.3 880 41.3C906.7 41.3 933.3 41.7 946.7 41.8L960 42L960 0L946.7 0C933.3 0 906.7 0 880 0C853.3 0 826.7 0 800 0C773.3 0 746.7 0 720 0C693.3 0 666.7 0 640 0C613.3 0 586.7 0 560 0C533.3 0 506.7 0 480 0C453.3 0 426.7 0 400 0C373.3 0 346.7 0 320 0C293.3 0 266.7 0 240 0C213.3 0 186.7 0 160 0C133.3 0 106.7 0 80 0C53.3 0 26.7 0 13.3 0L0 0Z" fill="#cf3068"></path><path d="M0 21L13.3 22C26.7 23 53.3 25 80 24.8C106.7 24.7 133.3 22.3 160 21.7C186.7 21 213.3 22 240 23.5C266.7 25 293.3 27 320 27.2C346.7 27.3 373.3 25.7 400 25C426.7 24.3 453.3 24.7 480 23.8C506.7 23 533.3 21 560 19.7C586.7 18.3 613.3 17.7 640 18C666.7 18.3 693.3 19.7 720 20.8C746.7 22 773.3 23 800 22.8C826.7 22.7 853.3 21.3 880 21.7C906.7 22 933.3 24 946.7 25L960 26L960 0L946.7 0C933.3 0 906.7 0 880 0C853.3 0 826.7 0 800 0C773.3 0 746.7 0 720 0C693.3 0 666.7 0 640 0C613.3 0 586.7 0 560 0C533.3 0 506.7 0 480 0C453.3 0 426.7 0 400 0C373.3 0 346.7 0 320 0C293.3 0 266.7 0 240 0C213.3 0 186.7 0 160 0C133.3 0 106.7 0 80 0C53.3 0 26.7 0 13.3 0L0 0Z" fill="#c62368"></path></svg>