<svg id="visual" viewBox="0 0 960 300" width="960" height="300" xmlns="http://www.w3.org/2000/svg" xmlns:xlink="http://www.w3.org/1999/xlink" version="1.1"><rect x="0" y="0" width="960" height="100" fill="#001220"></rect><path d="M0 149L13.3 149.3C26.7 149.7 53.3 150.3 80 154.7C106.7 159 133.3 167 160 169.7C186.7 172.3 213.3 169.7 240 169.5C266.7 169.3 293.3 171.7 320 171C346.7 170.3 373.3 166.7 400 163.5C426.7 160.3 453.3 157.7 480 156.8C506.7 156 533.3 157 560 157.5C586.7 158 613.3 158 640 160C666.7 162 693.3 166 720 164.7C746.7 163.3 773.3 156.7 800 156.5C826.7 156.3 853.3 162.7 880 165.5C906.7 168.3 933.3 167.7 946.7 167.3L960 167L960 0L946.7 0C933.3 0 906.7 0 880 0C853.3 0 826.7 0 800 0C773.3 0 746.7 0 720 0C693.3 0 666.7 0 640 0C613.3 0 586.7 0 560 0C533.3 0 506.7 0 480 0C453.3 0 426.7 0 400 0C373.3 0 346.7 0 320 0C293.3 0 266.7 0 240 0C213.3 0 186.7 0 160 0C133.3 0 106.7 0 80 0C53.3 0 26.7 0 13.3 0L0 0Z" fill="#fa7268"></path><path d="M0 153L13.3 150.3C26.7 147.7 53.3 142.3 80 141.7C106.7 141 133.3 145 160 145.2C186.7 145.3 213.3 141.7 240 139.2C266.7 136.7 293.3 135.3 320 135.2C346.7 135 373.3 136 400 136.8C426.7 137.7 453.3 138.3 480 139.8C506.7 141.3 533.3 143.7 560 145.7C586.7 147.7 613.3 149.3 640 150.3C666.7 151.3 693.3 151.7 720 152C746.7 152.3 773.3 152.7 800 149.8C826.7 147 853.3 141 880 139.8C906.7 138.7 933.3 142.3 946.7 144.2L960 146L960 0L946.7 0C933.3 0 906.7 0 880 0C853.3 0 826.7 0 800 0C773.3 0 746.7 0 720 0C693.3 0 666.7 0 640 0C613.3 0 586.7 0 560 0C533.3 0 506.7 0 480 0C453.3 0 426.7 0 400 0C373.3 0 346.7 0 320 0C293.3 0 266.7 0 240 0C213.3 0 186.7 0 160 0C133.3 0 106.7 0 80 0C53.3 0 26.7 0 13.3 0L0 0Z" fill="#f46767"></path><path d="M0 128L13.3 127.8C26.7 127.7 53.3 127.3 80 124.7C106.7 122 133.3 117 160 115C186.7 113 213.3 114 240 115.3C266.7 116.7 293.3 118.3 320 117.7C346.7 117 373.3 114 400 114.8C426.7 115.7 453.3 120.3 480 121.2C506.7 122 533.3 119 560 117.3C586.7 115.7 613.3 115.3 640 118.2C666.7 121 693.3 127 720 129.7C746.7 132.3 773.3 131.7 800 131.2C826.7 130.7 853.3 130.3 880 128C906.7 125.7 933.3 121.3 946.7 119.2L960 117L960 0L946.7 0C933.3 0 906.7 0 880 0C853.3 0 826.7 0 800 0C773.3 0 746.7 0 720 0C693.3 0 666.7 0 640 0C613.3 0 586.7 0 560 0C533.3 0 506.7 0 480 0C453.3 0 426.7 0 400 0C373.3 0 346.7 0 320 0C293.3 0 266.7 0 240 0C213.3 0 186.7 0 160 0C133.3 0 106.7 0 80 0C53.3 0 26.7 0 13.3 0L0 0Z" fill="#ee5c67"></path><path d="M0 108L13.3 107.5C26.7 107 53.3 106 80 103.2C106.7 100.3 133.3 95.7 160 94.2C186.7 92.7 213.3 94.3 240 97.7C266.7 101 293.3 106 320 106.8C346.7 107.7 373.3 104.3 400 102C426.7 99.7 453.3 98.3 480 100C506.7 101.7 533.3 106.3 560 108.2C586.7 110 613.3 109 640 105.8C666.7 102.7 693.3 97.3 720 95.3C746.7 93.3 773.3 94.7 800 97.5C826.7 100.3 853.3 104.7 880 107.3C906.7 110 933.3 111 946.7 111.5L960 112L960 0L946.7 0C933.3 0 906.7 0 880 0C853.3 0 826.7 0 800 0C773.3 0 746.7 0 720 0C693.3 0 666.7 0 640 0C613.3 0 586.7 0 560 0C533.3 0 506.7 0 480 0C453.3 0 426.7 0 400 0C373.3 0 346.7 0 320 0C293.3 0 266.7 0 240 0C213.3 0 186.7 0 160 0C133.3 0 106.7 0 80 0C53.3 0 26.7 0 13.3 0L0 0Z" fill="#e75167"></path><path d="M0 76L13.3 76.7C26.7 77.3 53.3 78.7 80 81C106.7 83.3 133.3 86.7 160 88.5C186.7 90.3 213.3 90.7 240 90.8C266.7 91 293.3 91 320 88.2C346.7 85.3 373.3 79.7 400 79.8C426.7 80 453.3 86 480 87.5C506.7 89 533.3 86 560 83.7C586.7 81.3 613.3 79.7 640 80.7C666.7 81.7 693.3 85.3 720 84.3C746.7 83.3 773.3 77.7 800 75.3C826.7 73 853.3 74 880 74.7C906.7 75.3 933.3 75.7 946.7 75.8L960 76L960 0L946.7 0C933.3 0 906.7 0 880 0C853.3 0 826.7 0 800 0C773.3 0 746.7 0 720 0C693.3 0 666.7 0 640 0C613.3 0 586.7 0 560 0C533.3 0 506.7 0 480 0C453.3 0 426.7 0 400 0C373.3 0 346.7 0 320 0C293.3 0 266.7 0 240 0C213.3 0 186.7 0 160 0C133.3 0 106.7 0 80 0C53.3 0 26.7 0 13.3 0L0 0Z" fill="#df4667"></path><path d="M0 64L13.3 65C26.7 66 53.3 68 80 68.7C106.7 69.3 133.3 68.7 160 68.7C186.7 68.7 213.3 69.3 240 69.3C266.7 69.3 293.3 68.7 320 66.7C346.7 64.7 373.3 61.3 400 61.5C426.7 61.7 453.3 65.3 480 65.8C506.7 66.3 533.3 63.7 560 62.5C586.7 61.3 613.3 61.7 640 61.8C666.7 62 693.3 62 720 63.2C746.7 64.3 773.3 66.7 800 67.5C826.7 68.3 853.3 67.7 880 66.3C906.7 65 933.3 63 946.7 62L960 61L960 0L946.7 0C933.3 0 906.7 0 880 0C853.3 0 826.7 0 800 0C773.3 0 746.7 0 720 0C693.3 0 666.7 0 640 0C613.3 0 586.7 0 560 0C533.3 0 506.7 0 480 0C453.3 0 426.7 0 400 0C373.3 0 346.7 0 320 0C293.3 0 266.7 0 240 0C213.3 0 186.7 0 160 0C133.3 0 106.7 0 80 0C53.3 0 26.7 0 13.3 0L0 0Z" fill="#d73b67"></path><path d="M0 39L13.3 39C26.7 39 53.3 39 80 40C106.7 41 133.3 43 160 44.7C186.7 46.3 213.3 47.7 240 46.5C266.7 45.3 293.3 41.7 320 39.3C346.7 37 373.3 36 400 36.8C426.7 37.7 453.3 40.3 480 42.5C506.7 44.7 533.3 46.3 560 46.3C586.7 46.3 613.3 44.7 640 44.7C666.7 44.7 693.3 46.3 720 47.5C746.7 48.7 773.3 49.3 800 47.3C826.7 45.3 853.3 40.7 880 38.5C906.7 36.3 933.3 36.7 946.7 36.8L960 37L960 0L946.7 0C933.3 0 906.7 0 880 0C853.3 0 826.7 0 800 0C773.3 0 746.7 0 720 0C693.3 0 666.7 0 640 0C613.3 0 586.7 0 560 0C533.3 0 506.7 0 480 0C453.3 0 426.7 0 400 0C373.3 0 346.7 0 320 0C293.3 0 266.7 0 240 0C213.3 0 186.7 0 160 0C133.3 0 106.7 0 80 0C53.3 0 26.7 0 13.3 0L0 0Z" fill="#cf3068"></path><path d="M0 26L13.3 25.5C26.7 25 53.3 24 80 24.2C106.7 24.3 133.3 25.7 160 26C186.7 26.3 213.3 25.7 240 24.5C266.7 23.3 293.3 21.7 320 22.2C346.7 22.7 373.3 25.3 400 26.8C426.7 28.3 453.3 28.7 480 28C506.7 27.3 533.3 25.7 560 23.8C586.7 22 613.3 20 640 19.3C666.7 18.7 693.3 19.3 720 19.8C746.7 20.3 773.3 20.7 800 21C826.7 21.3 853.3 21.7 880 22.8C906.7 24 933.3 26 946.7 27L960 28L960 0L946.7 0C933.3 0 906.7 0 880 0C853.3 0 826.7 0 800 0C773.3 0 746.7 0 720 0C693.3 0 666.7 0 640 0C613.3 0 586.7 0 560 0C533.3 0 506.7 0 480 0C453.3 0 426.7 0 400 0C373.3 0 346.7 0 320 0C293.3 0 266.7 0 240 0C213.3 0 186.7 0 160 0C133.3 0 106.7 0 80 0C53.3 0 26.7 0 13.3 0L0 0Z" fill="#c62368"></path></svg>