<svg id="visual" viewBox="0 0 750 75" width="750" height="75" xmlns="http://www.w3.org/2000/svg" xmlns:xlink="http://www.w3.org/1999/xlink" version="1.1"><rect x="0" y="0" width="750" height="75" fill="#177e89"></rect><path d="M0 29L7.3 32.7C14.7 36.3 29.3 43.7 44 44C58.7 44.3 73.3 37.7 88 37.7C102.7 37.7 117.3 44.3 132 44.8C146.7 45.3 161.3 39.7 176.2 35.3C191 31 206 28 220.8 26C235.7 24 250.3 23 265 24.8C279.7 26.7 294.3 31.3 309 32.3C323.7 33.3 338.3 30.7 353 33C367.7 35.3 382.3 42.7 397 44.5C411.7 46.3 426.3 42.7 441 39C455.7 35.3 470.3 31.7 485 29C499.7 26.3 514.3 24.7 529.2 26.8C544 29 559 35 573.8 39.7C588.7 44.3 603.3 47.7 618 49.2C632.7 50.7 647.3 50.3 662 45.7C676.7 41 691.3 32 706 28.8C720.7 25.7 735.3 28.3 742.7 29.7L750 31L750 0L742.7 0C735.3 0 720.7 0 706 0C691.3 0 676.7 0 662 0C647.3 0 632.7 0 618 0C603.3 0 588.7 0 573.8 0C559 0 544 0 529.2 0C514.3 0 499.7 0 485 0C470.3 0 455.7 0 441 0C426.3 0 411.7 0 397 0C382.3 0 367.7 0 353 0C338.3 0 323.7 0 309 0C294.3 0 279.7 0 265 0C250.3 0 235.7 0 220.8 0C206 0 191 0 176.2 0C161.3 0 146.7 0 132 0C117.3 0 102.7 0 88 0C73.3 0 58.7 0 44 0C29.3 0 14.7 0 7.3 0L0 0Z" fill="#084c61" stroke-linecap="round" stroke-linejoin="miter"></path></svg>